<?xml version="1.0" encoding="utf-8"?>
<!-- Generator: Adobe Illustrator 19.0.0, SVG Export Plug-In . SVG Version: 6.00 Build 0)  -->
<svg version="1.2" baseProfile="tiny" id="Layer_1" xmlns="http://www.w3.org/2000/svg" xmlns:xlink="http://www.w3.org/1999/xlink"
	 x="0px" y="0px" viewBox="0 0 523.8 96.2" xml:space="preserve">
<linearGradient id="XMLID_2_" gradientUnits="userSpaceOnUse" x1="46.796" y1="73.4329" x2="46.796" y2="4.2436">
	<stop  offset="0" style="stop-color:#FFF33B"/>
	<stop  offset="5.948725e-002" style="stop-color:#FFE029"/>
	<stop  offset="0.1303" style="stop-color:#FFD218"/>
	<stop  offset="0.2032" style="stop-color:#FEC90F"/>
	<stop  offset="0.2809" style="stop-color:#FDC70C"/>
	<stop  offset="0.6685" style="stop-color:#F3903F"/>
	<stop  offset="0.8876" style="stop-color:#ED683C"/>
	<stop  offset="1" style="stop-color:#E93E3A"/>
</linearGradient>
<path id="XMLID_4_" fill="url(#XMLID_2_)" stroke="#999999" stroke-width="2" stroke-miterlimit="10" d="M10.9,73.4
	c-0.9-0.1-1.7-0.3-2.5-0.6c-0.8-0.3-1.5-0.8-2-1.4c-0.7-0.8-1.1-1.7-1.3-2.8c-0.2-1.1-0.2-2.2,0-3.2l12.6-52.3
	c0.4-1.4,0.9-2.5,1.5-3.5c0.5-1,1.2-1.9,2-2.6c1-0.9,2.1-1.6,3.4-2.1c1.3-0.5,2.8-0.7,4.6-0.7h17h18.5h17.1c0.7,0,1.3,0,2,0.1
	c0.7,0.1,1.3,0.2,1.9,0.5C86.1,5.1,86.6,5.5,87,6c0.5,0.5,0.8,1.2,1.1,2c0.5,1.6,0.6,3.9,0.1,6.9L76.2,65.4
	c-0.8,2.4-1.7,4.2-2.7,5.5c-0.8,0.9-1.7,1.5-2.7,1.9c-1,0.4-2.3,0.6-3.9,0.7h-0.5H48H29.5h-5.7H10.9z M51.4,59.2
	c1.6-6.8,3.3-13.6,4.9-20.4c1.6-6.8,3.2-13.6,4.9-20.4H20.9l21,3.1c-1.5,6.3-3.1,12.6-4.5,18.9c-1.5,6.3-3,12.5-4.5,18.9H51.4z"/>
<linearGradient id="XMLID_3_" gradientUnits="userSpaceOnUse" x1="116.9517" y1="91.9872" x2="116.9517" y2="18.5483">
	<stop  offset="0" style="stop-color:#FFF33B"/>
	<stop  offset="5.948725e-002" style="stop-color:#FFE029"/>
	<stop  offset="0.1303" style="stop-color:#FFD218"/>
	<stop  offset="0.2032" style="stop-color:#FEC90F"/>
	<stop  offset="0.2809" style="stop-color:#FDC70C"/>
	<stop  offset="0.6685" style="stop-color:#F3903F"/>
	<stop  offset="0.8876" style="stop-color:#ED683C"/>
	<stop  offset="1" style="stop-color:#E93E3A"/>
</linearGradient>
<path id="XMLID_7_" fill="url(#XMLID_3_)" stroke="#999999" stroke-width="2" stroke-miterlimit="10" d="M151.1,18.5
	c1.6,0,3,0.7,4,2c0.6,0.7,1,1.6,1.3,2.7c0.3,1.1,0.3,2.3,0.1,3.6l-9.3,38.8c-0.9,2.6-2.3,4.5-4.2,5.8c-1,0.8-2.1,1.3-3.2,1.6
	c-1.1,0.3-2.3,0.4-3.5,0.4H121h-1.9h-11.2L103.6,92H77.3l17.5-73.4h0.1h26.2H151.1z M111.3,59.1h11.2l6.3-26.3h-11.1h-0.1h-0.1
	L111.3,59.1z"/>
<linearGradient id="XMLID_24_" gradientUnits="userSpaceOnUse" x1="191.0546" y1="73.4329" x2="191.0546" y2="18.4885">
	<stop  offset="0" style="stop-color:#FFF33B"/>
	<stop  offset="5.948725e-002" style="stop-color:#FFE029"/>
	<stop  offset="0.1303" style="stop-color:#FFD218"/>
	<stop  offset="0.2032" style="stop-color:#FEC90F"/>
	<stop  offset="0.2809" style="stop-color:#FDC70C"/>
	<stop  offset="0.6685" style="stop-color:#F3903F"/>
	<stop  offset="0.8876" style="stop-color:#ED683C"/>
	<stop  offset="1" style="stop-color:#E93E3A"/>
</linearGradient>
<path id="XMLID_10_" fill="url(#XMLID_24_)" stroke="#999999" stroke-width="2" stroke-miterlimit="10" d="M159.2,73.4
	c-1.6-0.1-3-0.8-4-2c-0.6-0.7-1-1.6-1.3-2.7c-0.3-1.1-0.3-2.3-0.2-3.6l9.3-38.8c0.9-2.6,2.3-4.5,4.2-5.9c1-0.8,2.1-1.3,3.2-1.6
	c1.1-0.3,2.3-0.4,3.5-0.4h15.3h1.9h37.4L225,32.8l-4.3,18.6h-37.4l-1.9,7.8h11.1v-0.1h26.2l-3.4,14.4H159.2z M198.8,32.8h-11.1
	l-2.1,8.7h11.1L198.8,32.8z"/>
<linearGradient id="XMLID_25_" gradientUnits="userSpaceOnUse" x1="259.8764" y1="73.4329" x2="259.8764" y2="18.4885">
	<stop  offset="0" style="stop-color:#FFF33B"/>
	<stop  offset="5.948725e-002" style="stop-color:#FFE029"/>
	<stop  offset="0.1303" style="stop-color:#FFD218"/>
	<stop  offset="0.2032" style="stop-color:#FEC90F"/>
	<stop  offset="0.2809" style="stop-color:#FDC70C"/>
	<stop  offset="0.6685" style="stop-color:#F3903F"/>
	<stop  offset="0.8876" style="stop-color:#ED683C"/>
	<stop  offset="1" style="stop-color:#E93E3A"/>
</linearGradient>
<path id="XMLID_13_" fill="url(#XMLID_25_)" stroke="#999999" stroke-width="2" stroke-miterlimit="10" d="M222.6,73.4l13.1-54.9
	H292c2.2,0.2,3.6,1.2,4.4,3c0.7,1.6,0.9,3.6,0.7,6l-11,45.9h-26.2l9.7-40.8h-11.1l-9.7,40.8H222.6z"/>
<linearGradient id="XMLID_26_" gradientUnits="userSpaceOnUse" x1="336.1573" y1="73.4329" x2="336.1573" y2="4.2436">
	<stop  offset="0" style="stop-color:#FFF33B"/>
	<stop  offset="5.948725e-002" style="stop-color:#FFE029"/>
	<stop  offset="0.1303" style="stop-color:#FFD218"/>
	<stop  offset="0.2032" style="stop-color:#FEC90F"/>
	<stop  offset="0.2809" style="stop-color:#FDC70C"/>
	<stop  offset="0.6685" style="stop-color:#F3903F"/>
	<stop  offset="0.8876" style="stop-color:#ED683C"/>
	<stop  offset="1" style="stop-color:#E93E3A"/>
</linearGradient>
<path id="XMLID_15_" fill="url(#XMLID_26_)" stroke="#999999" stroke-width="2" stroke-miterlimit="10" d="M310,4.2h19.6h6.6h18.5
	h17.4c1.2,0,2.4,0.2,3.5,0.6c1.1,0.4,2,1.3,2.6,2.7c0.4,0.9,0.6,2,0.6,3.1c0,1.2-0.1,2.4-0.3,3.8L374.3,32c-0.7,2-1.8,3.4-3.2,4.4
	c-1.1,0.8-2.5,1.4-4.1,1.8c-1.6,0.4-3.6,0.7-6.1,0.9c0.5,0,1.2,0.1,2,0.3c0.8,0.2,1.6,0.4,2.5,0.7c0.9,0.3,1.7,0.7,2.5,1.2
	c0.8,0.5,1.5,1,2,1.7c0.4,0.5,0.7,1.1,0.8,1.8c0.2,0.7,0.1,1.4,0,2.2l-4.3,17.6c-0.5,1.7-1,3.2-1.6,4.3c-0.5,1.2-1.2,2.1-2,2.8
	c-0.7,0.6-1.6,1-2.6,1.3c-1.1,0.3-2.4,0.5-4,0.5h-18.1h-18.5h-5.9h-20.3L310,4.2z M351.4,18.4h-40l20.7,3.1l-2.5,10.7h18.5
	L351.4,18.4z M323.1,59.2h18.6l3-12.8h-18.6L323.1,59.2z"/>
<linearGradient id="XMLID_27_" gradientUnits="userSpaceOnUse" x1="409.5302" y1="73.4329" x2="409.5302" y2="18.4885">
	<stop  offset="0" style="stop-color:#FFF33B"/>
	<stop  offset="5.948725e-002" style="stop-color:#FFE029"/>
	<stop  offset="0.1303" style="stop-color:#FFD218"/>
	<stop  offset="0.2032" style="stop-color:#FEC90F"/>
	<stop  offset="0.2809" style="stop-color:#FDC70C"/>
	<stop  offset="0.6685" style="stop-color:#F3903F"/>
	<stop  offset="0.8876" style="stop-color:#ED683C"/>
	<stop  offset="1" style="stop-color:#E93E3A"/>
</linearGradient>
<path id="XMLID_19_" fill="url(#XMLID_27_)" stroke="#999999" stroke-width="2" stroke-miterlimit="10" d="M440.3,18.5
	c1,0.1,1.9,0.4,2.6,0.8c0.7,0.5,1.3,1.1,1.8,1.8c1,1.4,1.3,3.5,0.9,6l-8.4,35.3c-0.5,1.4-1,2.7-1.6,3.9c-0.6,1.2-1.3,2.2-2.1,3.1
	c-1,1.2-2.2,2.1-3.6,2.8c-1.4,0.7-3.1,1.1-5.1,1.1h-16.4h-11.1h-19c-2.1-0.2-3.6-1.2-4.4-3c-0.7-1.6-0.9-3.6-0.7-6l9.1-38.2
	c0.9-2.2,2-3.9,3.3-5.1c1.6-1.4,3.8-2.3,6.4-2.6h6.1h12.3h11.1h16.9H440.3z M411.9,59.2l6.3-26.6h-11.1l-6.3,26.6H411.9z"/>
<linearGradient id="XMLID_28_" gradientUnits="userSpaceOnUse" x1="480.411" y1="73.4329" x2="480.411" y2="4.2436">
	<stop  offset="0" style="stop-color:#FFF33B"/>
	<stop  offset="5.948725e-002" style="stop-color:#FFE029"/>
	<stop  offset="0.1303" style="stop-color:#FFD218"/>
	<stop  offset="0.2032" style="stop-color:#FEC90F"/>
	<stop  offset="0.2809" style="stop-color:#FDC70C"/>
	<stop  offset="0.6685" style="stop-color:#F3903F"/>
	<stop  offset="0.8876" style="stop-color:#ED683C"/>
	<stop  offset="1" style="stop-color:#E93E3A"/>
</linearGradient>
<path id="XMLID_22_" fill="url(#XMLID_28_)" stroke="#999999" stroke-width="2" stroke-miterlimit="10" d="M442.1,73.4L453.3,14
	c0.9-3.2,2.3-5.6,4.2-7.3c1-0.9,2.1-1.5,3.2-1.9s2.3-0.6,3.5-0.6h15.3h1.9h37.3L514,29.6h-26.2l1.4-7.4H478l-9.7,51.2H442.1z"/>
</svg>
