<?xml version="1.0" encoding="utf-8"?>
<!-- Generator: Adobe Illustrator 19.0.0, SVG Export Plug-In . SVG Version: 6.00 Build 0)  -->
<svg version="1.2" baseProfile="tiny" id="Layer_1" xmlns="http://www.w3.org/2000/svg" xmlns:xlink="http://www.w3.org/1999/xlink"
	 x="0px" y="0px" viewBox="0 0 531.5 118" xml:space="preserve">
<g id="XMLID_3_">
	<path id="XMLID_4_" fill="#CA4B9B" stroke="#CCCCCC" stroke-width="3" stroke-miterlimit="10" d="M65.5,49.9
		c-1.7,0-2.5-0.8-2.5-2.3c0-0.7,0.2-1.4,0.7-2.3l2.6-4.5c0.4-0.8,0.7-1.6,0.7-2.3c0-1.5-0.9-2.3-2.6-2.3c-1.2,0-2.5,0.4-3.9,1.3
		c-1.4,0.9-2.5,1.9-3.2,3.2l-5.3,9.1c-0.4,0.8-0.7,1.6-0.7,2.3c0,1.5,0.9,2.3,2.6,2.3h31.7c1.7,0,2.5,0.8,2.5,2.3
		c0,0.7-0.2,1.4-0.7,2.3L77,77.1c-0.7,1.3-1.7,2.3-3.2,3.2c-1.4,0.9-2.8,1.3-4,1.3H6.5c-1.7,0-2.5-0.8-2.5-2.3
		c0-0.7,0.2-1.4,0.7-2.3L9.8,68c0.8-1.3,1.8-2.3,3.2-3.2c1.4-0.9,2.7-1.3,4-1.3h22.6c1.8,0,2.6,0.8,2.6,2.3c0,0.7-0.3,1.4-0.8,2.3
		l-2.5,4.5c-0.5,0.8-0.8,1.6-0.8,2.3c0,1.5,0.9,2.3,2.6,2.3c1.2,0,2.6-0.4,3.9-1.3c1.4-0.9,2.4-2,3.2-3.2l5.2-9
		c0.5-0.8,0.8-1.6,0.8-2.3c0-1.5-0.9-2.3-2.6-2.3H19.6c-1.8,0-2.6-0.8-2.6-2.3c0-0.7,0.3-1.4,0.8-2.3l10.4-18.1
		c0.8-1.3,1.8-2.3,3.2-3.2c1.4-0.9,2.7-1.3,4-1.3h63.4c1.8,0,2.6,0.8,2.6,2.3c0,0.7-0.3,1.4-0.8,2.3l-5.2,9.1
		c-0.7,1.3-1.7,2.3-3.2,3.2c-1.4,0.9-2.8,1.3-4,1.3H65.5z"/>
	<path id="XMLID_6_" fill="#CA4B9B" stroke="#CCCCCC" stroke-width="3" stroke-miterlimit="10" d="M124.9,60.3
		c-1.4,0.9-2.4,1.9-3.1,3.2l-5.3,9c-0.4,0.8-0.6,1.6-0.6,2.3c0,1.5,0.8,2.3,2.5,2.3c1.3,0,2.6-0.4,4-1.3c1.4-0.9,2.5-1.9,3.2-3.2
		l2.6-4.5c0.7-1.3,1.7-2.3,3.2-3.2c1.4-0.9,2.7-1.3,4-1.3h22.6c1.7,0,2.5,0.8,2.5,2.3c0,0.7-0.2,1.4-0.7,2.3l-5.3,9.1
		c-0.7,1.3-1.7,2.3-3.2,3.2c-1.4,0.9-2.7,1.3-3.9,1.3H84.2c-1.8,0-2.6-0.8-2.6-2.3c0-0.7,0.2-1.4,0.7-2.3l23.6-40.7
		c0.7-1.3,1.7-2.3,3.2-3.2c1.4-0.9,2.8-1.3,4-1.3h63.4c1.7,0,2.5,0.8,2.5,2.3c0,0.7-0.2,1.4-0.7,2.3l-10.5,18.1
		c-0.7,1.3-1.7,2.3-3.2,3.2c-1.4,0.9-2.8,1.3-4,1.3h-31.7C127.6,59,126.3,59.4,124.9,60.3z M129.6,49.9c-0.4,0.8-0.7,1.6-0.7,2.3
		c0,1.5,0.9,2.3,2.6,2.3c1.3,0,2.6-0.4,4-1.3c1.4-0.9,2.5-1.9,3.2-3.2l5.2-9.1c0.4-0.8,0.7-1.6,0.7-2.3c0-1.5-0.9-2.3-2.6-2.3
		c-1.3,0-2.6,0.4-4,1.3c-1.4,0.9-2.5,1.9-3.2,3.2L129.6,49.9z"/>
	<path id="XMLID_9_" fill="#CA4B9B" stroke="#CCCCCC" stroke-width="3" stroke-miterlimit="10" d="M170.7,112.2
		c-0.9,1.6-2,2.5-3,2.5c-0.6,0-1-0.3-1.4-0.9l-12.5-21.2c-0.4-0.6-0.6-1.4-0.6-2.4c0-1.8,0.5-3.5,1.4-5.1l43.8-75.8
		c0.7-1.3,1.7-2.3,3.2-3.2c1.4-0.9,2.8-1.3,4-1.3h22.6c1.7,0,2.5,0.8,2.5,2.3c0,0.7-0.2,1.4-0.7,2.3l-5.3,9.1
		c-0.4,0.8-0.7,1.6-0.7,2.3c0,1.5,0.9,2.3,2.6,2.3c2.3,0,3.4,0.5,3.4,1.6c0,0.9-0.8,1.7-2.5,2.3c-1.3,0.4-2.5,0.7-3.6,0.7
		c-1.3,0-2.6,0.4-4,1.3c-1.4,0.9-2.5,1.9-3.2,3.2L170.7,112.2z"/>
	<path id="XMLID_11_" fill="#CA4B9B" stroke="#CCCCCC" stroke-width="3" stroke-miterlimit="10" d="M215.6,112.2
		c-0.9,1.6-2,2.5-3,2.5c-0.6,0-1-0.3-1.4-0.9l-12.5-21.2c-0.4-0.6-0.6-1.4-0.6-2.4c0-1.8,0.5-3.5,1.4-5.1l43.8-75.8
		c0.7-1.3,1.7-2.3,3.2-3.2c1.4-0.9,2.8-1.3,4-1.3h22.6c1.7,0,2.5,0.8,2.5,2.3c0,0.7-0.2,1.4-0.7,2.3l-5.3,9.1
		c-0.4,0.8-0.7,1.6-0.7,2.3c0,1.5,0.9,2.3,2.6,2.3c2.3,0,3.4,0.5,3.4,1.6c0,0.9-0.8,1.7-2.5,2.3c-1.3,0.4-2.5,0.7-3.6,0.7
		c-1.3,0-2.6,0.4-4,1.3c-1.4,0.9-2.5,1.9-3.2,3.2L215.6,112.2z"/>
	<path id="XMLID_13_" fill="#CA4B9B" stroke="#CCCCCC" stroke-width="3" stroke-miterlimit="10" d="M242.4,81.6
		c-1.8,0-2.6-0.8-2.6-2.3c0-0.7,0.2-1.4,0.7-2.3L264,36.3c0.7-1.3,1.7-2.3,3.2-3.2c1.4-0.9,2.7-1.3,4-1.3h22.6
		c1.7,0,2.5,0.8,2.5,2.3c0,0.7-0.2,1.4-0.7,2.3l-23.6,40.7c-0.7,1.3-1.7,2.3-3.2,3.2s-2.7,1.3-3.9,1.3H242.4z"/>
	<path id="XMLID_15_" fill="#CA4B9B" stroke="#CCCCCC" stroke-width="3" stroke-miterlimit="10" d="M370.7,31.8
		c1.7,0,2.5,0.8,2.5,2.3c0,0.7-0.2,1.4-0.7,2.3L349,77.1c-0.7,1.3-1.7,2.3-3.2,3.2c-1.4,0.9-2.7,1.3-3.9,1.3h-22.6
		c-1.8,0-2.6-0.8-2.6-2.3c0-0.7,0.2-1.4,0.7-2.3l20.9-36.2c0.4-0.8,0.7-1.6,0.7-2.3c0-1.5-0.8-2.3-2.5-2.3c-1.3,0-2.6,0.4-4,1.3
		c-1.4,0.9-2.5,2-3.2,3.2l-20.9,36.2c-0.7,1.3-1.7,2.3-3.2,3.2c-1.4,0.9-2.7,1.3-3.9,1.3h-22.6c-1.8,0-2.6-0.8-2.6-2.3
		c0-0.7,0.2-1.4,0.7-2.3l23.6-40.7c0.7-1.3,1.7-2.3,3.2-3.2c1.4-0.9,2.8-1.3,4-1.3H370.7z"/>
	<path id="XMLID_17_" fill="#CA4B9B" stroke="#CCCCCC" stroke-width="3" stroke-miterlimit="10" d="M388.3,92.5
		c-0.4-0.7-0.6-1.6-0.6-2.6c0-1.6,0.4-3,1.1-4.2c0.3-0.6,0.5-1.2,0.5-1.8c0-1.4-0.9-2.2-2.7-2.2h-31.7c-1.8,0-2.6-0.8-2.6-2.3
		c0-0.7,0.2-1.4,0.7-2.3l23.6-40.7c0.7-1.3,1.7-2.3,3.2-3.2c1.4-0.9,2.8-1.3,4-1.3h63.4c1.7,0,2.5,0.8,2.5,2.3
		c0,0.7-0.2,1.4-0.7,2.3l-5.3,9.1c-0.7,1.3-1.7,2.3-3.2,3.2c-1.4,0.9-2.7,1.3-3.9,1.3h-22.6c-1.8,0-2.6-0.8-2.6-2.3
		c0-0.7,0.2-1.4,0.7-2.3l2.6-4.5c0.4-0.8,0.7-1.6,0.7-2.3c0-1.5-0.8-2.3-2.5-2.3c-1.3,0-2.6,0.4-4,1.3c-1.4,0.9-2.5,1.9-3.2,3.2
		l-18.3,31.7c-0.4,0.8-0.7,1.6-0.7,2.3c0,1.5,0.8,2.3,2.5,2.3c1.3,0,2.6-0.4,4-1.3c1.4-0.9,2.5-2,3.2-3.2l7.8-13.6
		c0.8-1.3,1.8-2.3,3.2-3.2c1.4-0.9,2.7-1.3,4-1.3h22.6c1.8,0,2.6,0.8,2.6,2.3c0,0.7-0.3,1.4-0.8,2.3l-30.7,53.2
		c-0.9,1.6-1.9,2.5-3,2.5c-0.6,0-1-0.3-1.3-0.9L388.3,92.5z"/>
	<path id="XMLID_19_" fill="#CA4B9B" stroke="#CCCCCC" stroke-width="3" stroke-miterlimit="10" d="M492.7,49.9
		c-1.8,0-2.6-0.8-2.6-2.3c0-0.7,0.2-1.4,0.7-2.3l2.6-4.5c0.4-0.8,0.7-1.6,0.7-2.3c0-1.5-0.8-2.3-2.5-2.3c-1.3,0-2.6,0.4-4,1.3
		c-1.4,0.9-2.5,1.9-3.2,3.2l-5.3,9c-0.5,0.8-0.7,1.6-0.7,2.3c0,1.5,0.9,2.3,2.6,2.3h31.7c1.8,0,2.6,0.8,2.6,2.3
		c0,0.7-0.3,1.4-0.8,2.3l-10.5,18.1c-0.7,1.3-1.7,2.3-3.2,3.2c-1.4,0.9-2.7,1.3-3.9,1.3h-63.4c-1.8,0-2.6-0.8-2.6-2.3
		c0-0.7,0.2-1.4,0.7-2.3L437,68c0.7-1.3,1.7-2.3,3.2-3.2c1.4-0.9,2.7-1.3,4-1.3h22.6c1.7,0,2.5,0.8,2.5,2.3c0,0.7-0.2,1.4-0.7,2.3
		l-2.6,4.5c-0.4,0.8-0.7,1.6-0.7,2.3c0,1.5,0.8,2.3,2.5,2.3c1.3,0,2.6-0.4,4-1.3c1.4-0.9,2.5-1.9,3.2-3.2l5.3-9.1
		c0.4-0.8,0.7-1.6,0.7-2.3c0-1.5-0.9-2.3-2.6-2.3h-31.7c-1.7,0-2.5-0.8-2.5-2.3c0-0.7,0.2-1.4,0.7-2.3l10.5-18.1
		c0.7-1.3,1.7-2.3,3.2-3.2c1.4-0.9,2.8-1.3,4-1.3h63.4c1.7,0,2.5,0.8,2.5,2.3c0,0.7-0.2,1.4-0.7,2.3l-5.3,9.1
		c-0.7,1.3-1.7,2.3-3.2,3.2c-1.4,0.9-2.7,1.3-3.9,1.3H492.7z"/>
</g>
</svg>
